<svg xmlns="http://www.w3.org/2000/svg" x="0px" y="0px" viewBox="6.576743125915527 6.092810153961182 34.84650802612305 35.81437683105469" enable-background="new 0 0 48 48">
<g>
	
		<path fill="#FFFFFF" stroke="#000000FF" stroke-width="1" stroke-linecap="round" stroke-linejoin="round" stroke-miterlimit="10" d="   M36.45472,32.76598c-1.22699-2.39714-3.26125-5.19107-4.62101-6.31606c-3.81129-3.15342-11.88445-3.15342-15.69575,0   c-1.35977,1.12499-3.39403,3.91892-4.62101,6.31606c-1.71899,3.35856-3.373,8.56048-1.10031,8.61094   c1.74564,0.03879,25.39275,0.03879,27.13838,0C39.82773,41.32646,38.17371,36.12454,36.45472,32.76598z"/>
	
		<circle fill="#FFFFFF" stroke="#000000FF" stroke-width="1" stroke-linecap="round" stroke-linejoin="round" stroke-miterlimit="10" cx="23.98584" cy="13.43688" r="6.84407"/>
	<path fill="none" stroke="#000000FF" stroke-width="1" stroke-linecap="round" stroke-linejoin="round" stroke-miterlimit="10" d="   M15.51094,41.40719c1.67486-0.68041,5.08079-2.96635,7.02634-4.31453c0.90838-0.62947,1.44855-1.66093,1.44855-2.7661v-4.76539   c0-1.1547-1.6081-1.43612-2.00023-0.35003l-0.01619,0.04485c-0.53029,1.51512-1.31684,4.69687-1.31684,4.69687l-5.95573,1.28785"/>
	<path fill="none" stroke="#000000FF" stroke-width="1" stroke-linecap="round" stroke-linejoin="round" stroke-miterlimit="10" d="   M32.46073,41.40719c-1.67486-0.68041-5.08079-2.96635-7.02634-4.31453c-0.90838-0.62947-1.44855-1.66093-1.44855-2.7661v-4.76539   c0-1.1547,1.6081-1.43612,2.00023-0.35003l0.01619,0.04485c0.53029,1.51512,1.31685,4.69687,1.31685,4.69687l5.95573,1.28785"/>
</g>
<g>
	
		<path fill="#FFFFFF" stroke="#FEC201FF" stroke-width="1" stroke-linecap="round" stroke-linejoin="round" stroke-miterlimit="10" d="   M11.23073,25.74081c-0.42886,0.3097-1.00427,0.3097-1.43313,0c-0.46413-0.33517-1.08196-0.81273-1.62963-1.34015   C6.66068,22.9491,6.8791,21.2071,7.83094,20.5421c1.30416-0.91115,2.68322,0.8546,2.68322,0.8546s1.37906-1.76575,2.68322-0.8546   c0.95184,0.665,1.17027,2.407-0.33703,3.85856C12.31268,24.92808,11.69486,25.40564,11.23073,25.74081z"/>
	
		<path fill="#FFFFFF" stroke="#FEC201FF" stroke-width="1" stroke-linecap="round" stroke-linejoin="round" stroke-miterlimit="10" d="   M38.2024,21.2868c-0.42886,0.3097-1.00427,0.3097-1.43313,0c-0.46413-0.33517-1.08195-0.81273-1.62963-1.34015   c-1.50729-1.45156-1.28887-3.19356-0.33703-3.85856c1.30416-0.91115,2.68322,0.85459,2.68322,0.85459   s1.37906-1.76575,2.68322-0.85459c0.95184,0.665,1.17027,2.407-0.33703,3.85856   C39.28436,20.47407,38.66653,20.95163,38.2024,21.2868z"/>
</g>
</svg>